<?xml version="1.0" standalone="no"?>
<!DOCTYPE svg PUBLIC "-//W3C//DTD SVG 20010904//EN"
 "http://www.w3.org/TR/2001/REC-SVG-20010904/DTD/svg10.dtd">
<svg version="1.0" xmlns="http://www.w3.org/2000/svg"
 width="480.000000pt" height="480.000000pt" viewBox="0 0 480.000000 480.000000"
 preserveAspectRatio="xMidYMid meet">
<metadata>
Created by potrace 1.14, written by Peter Selinger 2001-2017
</metadata>
<g transform="translate(0.000000,480.000000) scale(0.100000,-0.100000)"
fill="#000000" stroke="none">
<path d="M1819 4567 c126 -188 325 -569 431 -827 157 -383 271 -756 349 -1145
37 -187 46 -237 66 -390 4 -27 8 -61 10 -75 2 -14 7 -54 10 -90 3 -36 8 -78
10 -95 25 -208 25 -818 0 -1040 -2 -22 -9 -85 -15 -140 -5 -55 -13 -120 -16
-144 -5 -32 -4 -42 5 -37 14 9 485 10 626 2 148 -8 334 -23 385 -31 42 -6 101
-15 175 -24 60 -8 133 -21 270 -46 17 -4 74 -17 127 -31 53 -13 102 -24 107
-24 8 0 10 45 6 148 -5 160 -14 331 -20 402 -9 102 -17 176 -20 200 -7 48 -14
105 -20 155 -3 28 -10 77 -16 110 -6 33 -13 71 -15 85 -100 558 -292 1048
-582 1489 -350 533 -871 1010 -1542 1413 -142 85 -362 208 -373 208 -4 0 15
-33 42 -73z"/>
<path d="M1690 4180 c-3 -99 -18 -344 -25 -405 -2 -16 -7 -59 -10 -95 -3 -36
-8 -78 -10 -95 -5 -37 -13 -104 -20 -170 -6 -52 -29 -202 -45 -295 -5 -30 -12
-73 -15 -95 -13 -85 -89 -448 -131 -623 -168 -700 -420 -1368 -692 -1832 -64
-111 -201 -314 -234 -350 -13 -14 -34 -40 -48 -59 -28 -40 -42 -43 145 22 371
128 815 243 1165 302 19 3 60 10 90 15 30 5 107 17 170 25 63 9 126 18 140 20
14 2 52 6 85 10 33 3 63 9 67 13 3 4 9 39 13 77 4 39 8 77 10 85 4 14 13 96
20 180 22 253 22 728 0 930 -2 19 -6 69 -9 110 -3 41 -8 84 -10 95 -2 11 -7
47 -10 80 -7 56 -10 80 -21 145 -2 14 -9 57 -15 95 -15 99 -20 125 -30 170 -5
22 -12 56 -15 75 -11 66 -93 395 -130 520 -103 356 -263 773 -398 1035 l-36
70 -1 -55z"/>
</g>
</svg>
